# Made in Blockbench 4.6.5
mtllib FluSter.mtl

o cube
v 0.1875 0.703125 0.140625
v 0.1875 0.703125 -0.140625
v 0.1875 0.484375 0.140625
v 0.1875 0.484375 -0.140625
v -0.1875 0.703125 0.140625
v -0.1875 0.703125 -0.140625
v -0.1875 0.484375 0.140625
v -0.1875 0.484375 -0.140625
v 0.1875 0.659375 -0.1875
v -0.1875 0.659375 -0.1875
v -0.1875 0.628125 0.109375
v 0.1875 0.628125 0.109375
vt 0.5078125 0.640625
vt 0.53125 0.728125
vt 0.3828125 0.7125
vt 0.3671875 0.640625
vt 0.5390625 0.890625
vt 0.5234375 0.9625
vt 0.375 0.978125
vt 0.3984375 0.890625
vt 0 0.84375
vt 0.1875 0.84375
vt 0.1875 1
vt 0 1
vt 0.1875 0.6875
vt 0.1875 0.84375
vt 0 0.84375
vt 0 0.6875
vt 0.375 0.760821875
vt 0.375 0.834375
vt 0.1875 0.834375
vt 0.1875 0.760821875
vt 0.5625 0.78125
vt 0.5625 0.875
vt 0.375 0.875
vt 0.375 0.78125
vt 0.71875 0.8125
vt 0.71875 0.78125
vt 0.90625 0.78125
vt 0.90625 0.8125
vt 0.3984375 1
vt 0.375 0.978125
vt 0.5234375 0.9625
vt 0.5390625 1
vt 0.1875 0.875
vt 0.1875 0.834375
vt 0.375 0.834375
vt 0.375 0.875
vt 0.3671875 0.75
vt 0.3828125 0.7125
vt 0.53125 0.728125
vt 0.5078125 0.75
vn 1 0 0
vn -1 0 0
vn 0 1 0
vn 0 -1 0
vn 0 0.2124296443310436 0.9771763639228009
vn 0 -0.2587360852240835 -0.9659480515032451
vn 0 0.7310552682428695 -0.6823182503600108
vn -1 0 0
vn 0 -0.3846153846153848 0.923076923076923
vn 1 0 0
usemtl m_f45626d7-16b7-226c-a113-ee2f65160e17
f 4/1/1 9/2/1 12/3/1 3/4/1
f 7/5/2 11/6/2 10/7/2 8/8/2
f 5/9/3 1/10/3 2/11/3 6/12/3
f 4/13/4 3/14/4 7/15/4 8/16/4
f 3/17/5 12/18/5 11/19/5 7/20/5
f 8/21/6 10/22/6 9/23/6 4/24/6
f 2/25/7 9/26/7 10/27/7 6/28/7
f 6/29/8 10/30/8 11/31/8 5/32/8
f 5/33/9 11/34/9 12/35/9 1/36/9
f 1/37/10 12/38/10 9/39/10 2/40/10
o cube
v 0.18437500000000004 0.49375 0.134375
v 0.18437500000000004 0.49375 -0.134375
v 0.13750000000000004 0.31875 0.11875
v 0.13750000000000004 0.31875 -0.0875
v -0.18437500000000004 0.49375 0.134375
v -0.18437500000000004 0.49375 -0.134375
v -0.13750000000000004 0.31875 0.11875
v -0.13750000000000004 0.31875 -0.0875
vt 0.71875 0.875
vt 0.584375 0.875
vt 0.5921875 0.78125
vt 0.6953125 0.78125
vt 0.6265625 0.3125
vt 0.634375 0.40625
vt 0.5 0.40625
vt 0.5234375 0.3125
vt 0.1875 0.875
vt 0.375 0.875
vt 0.375 1
vt 0.1875 1
vt 0.75 0.4375
vt 0.75 0.53125
vt 0.625 0.53125
vt 0.625 0.4375
vt 0.3171875 0.53125
vt 0.340625 0.625
vt 0.15625 0.625
vt 0.1796875 0.53125
vt 0.53125 0.625
vt 0.346875 0.625
vt 0.3703125 0.53125
vt 0.5078125 0.53125
vn 0.9659480515032451 -0.2587360852240834 0
vn -0.9659480515032451 -0.2587360852240834 0
vn 0 1 0
vn 0 -1 0
vn 0 -0.0889319379745055 0.9960377053144619
vn 0 -0.2587360852240835 -0.9659480515032453
usemtl m_f45626d7-16b7-226c-a113-ee2f65160e17
f 14/41/11 13/42/11 15/43/11 16/44/11
f 19/45/12 17/46/12 18/47/12 20/48/12
f 17/49/13 13/50/13 14/51/13 18/52/13
f 16/53/14 15/54/14 19/55/14 20/56/14
f 15/57/15 13/58/15 17/59/15 19/60/15
f 18/61/16 14/62/16 16/63/16 20/64/16
o cube
v 0.15625 0.328125 0.140625
v 0.15625 0.328125 -0.109375
v 0.15625 0.203125 0.140625
v 0.15625 0.203125 -0.109375
v -0.15625 0.328125 0.140625
v -0.15625 0.328125 -0.109375
v -0.15625 0.203125 0.140625
v -0.15625 0.203125 -0.109375
vt 0.625 0.3125
vt 0.5 0.3125
vt 0.5 0.25
vt 0.625 0.25
vt 0.75 0.25
vt 0.75 0.3125
vt 0.625 0.3125
vt 0.625 0.25
vt 0.1875 0.625
vt 0.34375 0.625
vt 0.34375 0.75
vt 0.1875 0.75
vt 0.15625 0.5625
vt 0.15625 0.6875
vt 0 0.6875
vt 0 0.5625
vt 0.84375 0.9375
vt 0.84375 1
vt 0.6875 1
vt 0.6875 0.9375
vt 0.84375 0.9375
vt 0.6875 0.9375
vt 0.6875 0.875
vt 0.84375 0.875
vn 1 0 0
vn -1 0 0
vn 0 1 0
vn 0 -1 0
vn 0 0 1
vn 0 0 -1
usemtl m_f45626d7-16b7-226c-a113-ee2f65160e17
f 22/65/17 21/66/17 23/67/17 24/68/17
f 27/69/18 25/70/18 26/71/18 28/72/18
f 25/73/19 21/74/19 22/75/19 26/76/19
f 24/77/20 23/78/20 27/79/20 28/80/20
f 23/81/21 21/82/21 25/83/21 27/84/21
f 26/85/22 22/86/22 24/87/22 28/88/22
o cube
v 0.13301151344168602 0.20579968585683178 0.06525995536088657
v 0.15647668319772062 0.23786591832626833 -0.0793814721194053
v 0.13301151344168602 0.0837626849668401 0.03820500361862371
v 0.15647668319772062 0.11582891743627666 -0.10643642386166816
v 0.009550470867293784 0.21003201275932193 0.04616916241154653
v 0.033015640623328416 0.24209824522875847 -0.09847226506874532
v 0.009550470867293784 0.08799501186933024 0.01911421066928368
v 0.033015640623328416 0.1200612443387668 -0.12552721681100817
vt 0.875 0.59375
vt 0.8125 0.59375
vt 0.8125 0.53125
vt 0.875 0.53125
vt 0.5 0.125
vt 0.5 0.1875
vt 0.4375 0.1875
vt 0.4375 0.125
vt 0.8125 0.46875
vt 0.875 0.46875
vt 0.875 0.53125
vt 0.8125 0.53125
vt 0.5625 0.125
vt 0.5625 0.1875
vt 0.5 0.1875
vt 0.5 0.125
vt 0.625 0.125
vt 0.625 0.1875
vt 0.5625 0.1875
vt 0.5625 0.125
vt 0.875 0.34375
vt 0.8125 0.34375
vt 0.8125 0.28125
vt 0.875 0.28125
vn 0.9876883405951378 -0.033858615219921215 0.1527263435947202
vn -0.9876883405951378 0.033858615219921215 -0.1527263435947202
vn -6.938893903907228e-18 0.9762960071199334 0.21643961393810282
vn 6.938893903907228e-18 -0.9762960071199334 -0.21643961393810282
vn -0.1564344650402309 -0.21377488312957701 0.9642761832019457
vn 0.1564344650402309 0.21377488312957701 -0.9642761832019457
usemtl m_f45626d7-16b7-226c-a113-ee2f65160e17
f 30/89/23 29/90/23 31/91/23 32/92/23
f 35/93/24 33/94/24 34/95/24 36/96/24
f 33/97/25 29/98/25 30/99/25 34/100/25
f 32/101/26 31/102/26 35/103/26 36/104/26
f 31/105/27 29/106/27 33/107/27 35/108/27
f 34/109/28 30/110/28 32/111/28 36/112/28
o cube
v 0.1316080162830598 0.1370740978882828 0.045144262830495205
v 0.1582519425162114 0.11536807567991648 -0.07503872180032634
v 0.1269099732161491 0.01397312876175677 0.06633576564297981
v 0.15355389944930073 -0.007732893446609518 -0.05384721898784173
v 0.009571015393068136 0.1370740978882828 0.018089311088232335
v 0.036214941626219764 0.11536807567991648 -0.1020936735425892
v 0.0048729723261574515 0.01397312876175677 0.03928081390071694
v 0.03151689855930908 -0.007732893446609518 -0.0809021707301046
vt 0.78125 0.1875
vt 0.71875 0.1875
vt 0.71875 0.125
vt 0.78125 0.125
vt 0.875 0.21875
vt 0.875 0.28125
vt 0.8125 0.28125
vt 0.8125 0.21875
vt 0.78125 0.125
vt 0.84375 0.125
vt 0.84375 0.1875
vt 0.78125 0.1875
vt 0.90625 0.9375
vt 0.90625 1
vt 0.84375 1
vt 0.84375 0.9375
vt 0.125 0.09375
vt 0.125 0.15625
vt 0.0625 0.15625
vt 0.0625 0.09375
vt 0.90625 0.9375
vt 0.84375 0.9375
vt 0.84375 0.875
vt 0.90625 0.875
vn 0.9762960071199335 2.081668171172169e-17 0.21643961393810307
vn -0.9762960071199335 -2.081668171172169e-17 -0.21643961393810307
vn 0.0375843445352855 0.9848077530122082 -0.16953202249987684
vn -0.0375843445352855 -0.9848077530122082 0.16953202249987684
vn -0.213151409865213 0.1736481776669303 0.9614638770465722
vn 0.213151409865213 -0.1736481776669303 -0.9614638770465722
usemtl m_f45626d7-16b7-226c-a113-ee2f65160e17
f 38/113/29 37/114/29 39/115/29 40/116/29
f 43/117/30 41/118/30 42/119/30 44/120/30
f 41/121/31 37/122/31 38/123/31 42/124/31
f 40/125/32 39/126/32 43/127/32 44/128/32
f 39/129/33 37/130/33 41/131/33 43/132/33
f 42/133/34 38/134/34 40/135/34 44/136/34
o cube
v -0.1316080162830598 0.1370740978882828 0.045144262830495205
v -0.1582519425162114 0.11536807567991648 -0.07503872180032634
v -0.1269099732161491 0.01397312876175677 0.06633576564297981
v -0.15355389944930073 -0.007732893446609518 -0.05384721898784173
v -0.009571015393068136 0.1370740978882828 0.018089311088232335
v -0.036214941626219764 0.11536807567991648 -0.1020936735425892
v -0.0048729723261574515 0.01397312876175677 0.03928081390071694
v -0.03151689855930908 -0.007732893446609518 -0.0809021707301046
vt 0.1875 0.09375
vt 0.1875 0.15625
vt 0.125 0.15625
vt 0.125 0.09375
vt 0.90625 0.875
vt 0.84375 0.875
vt 0.84375 0.8125
vt 0.90625 0.8125
vt 0.1875 0.15625
vt 0.1875 0.09375
vt 0.25 0.09375
vt 0.25 0.15625
vt 0.90625 0.78125
vt 0.84375 0.78125
vt 0.84375 0.71875
vt 0.90625 0.71875
vt 0.3125 0.15625
vt 0.25 0.15625
vt 0.25 0.09375
vt 0.3125 0.09375
vt 0.90625 0.65625
vt 0.90625 0.71875
vt 0.84375 0.71875
vt 0.84375 0.65625
vn -0.9762960071199335 2.081668171172169e-17 0.21643961393810307
vn 0.9762960071199335 -2.081668171172169e-17 -0.21643961393810307
vn -0.0375843445352855 0.9848077530122082 -0.16953202249987684
vn 0.0375843445352855 -0.9848077530122082 0.16953202249987684
vn 0.213151409865213 0.1736481776669303 0.9614638770465722
vn -0.213151409865213 -0.1736481776669303 -0.9614638770465722
usemtl m_f45626d7-16b7-226c-a113-ee2f65160e17
f 47/137/35 45/138/35 46/139/35 48/140/35
f 50/141/36 49/142/36 51/143/36 52/144/36
f 46/145/37 45/146/37 49/147/37 50/148/37
f 51/149/38 47/150/38 48/151/38 52/152/38
f 49/153/39 45/154/39 47/155/39 51/156/39
f 48/157/40 46/158/40 50/159/40 52/160/40
o cube
v -0.13301151344168602 0.20579968585683178 0.06525995536088657
v -0.15647668319772062 0.23786591832626833 -0.0793814721194053
v -0.13301151344168602 0.0837626849668401 0.03820500361862371
v -0.15647668319772062 0.11582891743627666 -0.10643642386166816
v -0.009550470867293784 0.21003201275932193 0.04616916241154653
v -0.033015640623328416 0.24209824522875847 -0.09847226506874532
v -0.009550470867293784 0.08799501186933024 0.01911421066928368
v -0.033015640623328416 0.1200612443387668 -0.12552721681100817
vt 0.375 0.09375
vt 0.375 0.15625
vt 0.3125 0.15625
vt 0.3125 0.09375
vt 0.4375 0.15625
vt 0.375 0.15625
vt 0.375 0.09375
vt 0.4375 0.09375
vt 0.84375 0.46875
vt 0.84375 0.40625
vt 0.90625 0.40625
vt 0.90625 0.46875
vt 0.90625 0.40625
vt 0.84375 0.40625
vt 0.84375 0.34375
vt 0.90625 0.34375
vt 0.6875 0.15625
vt 0.625 0.15625
vt 0.625 0.09375
vt 0.6875 0.09375
vt 0.90625 0.15625
vt 0.90625 0.21875
vt 0.84375 0.21875
vt 0.84375 0.15625
vn -0.9876883405951378 -0.033858615219921215 0.1527263435947202
vn 0.9876883405951378 0.033858615219921215 -0.1527263435947202
vn 6.938893903907228e-18 0.9762960071199334 0.21643961393810282
vn -6.938893903907228e-18 -0.9762960071199334 -0.21643961393810282
vn 0.1564344650402309 -0.21377488312957701 0.9642761832019457
vn -0.1564344650402309 0.21377488312957701 -0.9642761832019457
usemtl m_f45626d7-16b7-226c-a113-ee2f65160e17
f 55/161/41 53/162/41 54/163/41 56/164/41
f 58/165/42 57/166/42 59/167/42 60/168/42
f 54/169/43 53/170/43 57/171/43 58/172/43
f 59/173/44 55/174/44 56/175/44 60/176/44
f 57/177/45 53/178/45 55/179/45 59/180/45
f 56/181/46 54/182/46 58/183/46 60/184/46
o cube
v 0.359375 0.7705313983141673 0.08005312442199354
v 0.359375 0.6850263624827502 -0.15487003077448358
v 0.359375 0.5649736375172498 0.15487003077448358
v 0.359375 0.4794686016858327 -0.08005312442199354
v 0.140625 0.7705313983141673 0.08005312442199354
v 0.140625 0.6850263624827502 -0.15487003077448358
v 0.140625 0.5649736375172498 0.15487003077448358
v 0.140625 0.4794686016858327 -0.08005312442199354
vt 0.125 0.5625
vt 0 0.5625
vt 0 0.4375
vt 0.125 0.4375
vt 0.25 0.40625
vt 0.25 0.53125
vt 0.125 0.53125
vt 0.125 0.40625
vt 0.25 0.40625
vt 0.375 0.40625
vt 0.375 0.53125
vt 0.25 0.53125
vt 0.5 0.40625
vt 0.5 0.53125
vt 0.375 0.53125
vt 0.375 0.40625
vt 0.625 0.40625
vt 0.625 0.53125
vt 0.5 0.53125
vt 0.5 0.40625
vt 0.65625 0.78125
vt 0.53125 0.78125
vt 0.53125 0.65625
vt 0.65625 0.65625
vn 1 0 0
vn -1 0 0
vn 0 0.9396926207859084 -0.34202014332566866
vn 0 -0.9396926207859084 0.34202014332566866
vn 0 0.34202014332566866 0.9396926207859084
vn 0 -0.34202014332566866 -0.9396926207859084
usemtl m_f45626d7-16b7-226c-a113-ee2f65160e17
f 62/185/47 61/186/47 63/187/47 64/188/47
f 67/189/48 65/190/48 66/191/48 68/192/48
f 65/193/49 61/194/49 62/195/49 66/196/49
f 64/197/50 63/198/50 67/199/50 68/200/50
f 63/201/51 61/202/51 65/203/51 67/204/51
f 66/205/52 62/206/52 64/207/52 68/208/52
o cube
v 0.3136092206830341 0.5522474499550235 0.1199051178115225
v 0.3407417484434919 0.49961868607479454 -0.02469122256321555
v 0.3136092206830341 0.4347858723567849 0.16265763572723105
v 0.3407417484434919 0.38215710847655604 0.018061295352493012
v 0.19050825155650808 0.5448235531282879 0.09950812891570564
v 0.21764077931696593 0.492194789248059 -0.04508821145903239
v 0.19050825155650808 0.42736197553004934 0.1422606468314142
v 0.21764077931696593 0.37473321164982043 -0.002335693543323837
vt 0.84375 0.78125
vt 0.75 0.78125
vt 0.75 0.71875
vt 0.84375 0.71875
vt 0.84375 0.65625
vt 0.84375 0.71875
vt 0.75 0.71875
vt 0.75 0.65625
vt 0.75 0.5625
vt 0.8125 0.5625
vt 0.8125 0.65625
vt 0.75 0.65625
vt 0.8125 0.46875
vt 0.8125 0.5625
vt 0.75 0.5625
vt 0.75 0.46875
vt 0.90625 0.09375
vt 0.90625 0.15625
vt 0.84375 0.15625
vt 0.84375 0.09375
vt 0.0625 0.125
vt 0 0.125
vt 0 0.0625
vt 0.0625 0.0625
vn 0.9848077530122081 0.05939117461388465 0.16317591116653482
vn -0.9848077530122081 -0.05939117461388465 -0.16317591116653482
vn 6.93889390390723e-18 0.9396926207859086 -0.34202014332566855
vn -6.93889390390723e-18 -0.9396926207859086 0.34202014332566855
vn -0.17364817766693033 0.336824088833465 0.9254165783983236
vn 0.17364817766693033 -0.336824088833465 -0.9254165783983236
usemtl m_f45626d7-16b7-226c-a113-ee2f65160e17
f 70/209/53 69/210/53 71/211/53 72/212/53
f 75/213/54 73/214/54 74/215/54 76/216/54
f 73/217/55 69/218/55 70/219/55 74/220/55
f 72/221/56 71/222/56 75/223/56 76/224/56
f 71/225/57 69/226/57 73/227/57 75/228/57
f 74/229/58 70/230/58 72/231/58 76/232/58
o cube
v 0.34404220939194236 0.48690743765808153 0.03922816584670778
v 0.3626556039386541 0.31388377404768114 -0.09331584900980489
v 0.3416842149778434 0.4107460825952002 0.1383184673768212
v 0.36029760952455514 0.23772241898479982 0.005774452520308539
v 0.18838678781510712 0.4781539014782031 0.028796107656434228
v 0.20700018236181886 0.3051302378678027 -0.10374790720007845
v 0.18602879340100817 0.4019925464153218 0.12788640918654764
v 0.2046421879477199 0.22896888280492136 -0.00465760566996503
vt 0.21875 0.28125
vt 0.09375 0.28125
vt 0.09375 0.21875
vt 0.21875 0.21875
vt 0.84375 0.8125
vt 0.84375 0.875
vt 0.71875 0.875
vt 0.71875 0.8125
vt 0.65625 0.65625
vt 0.75 0.65625
vt 0.75 0.78125
vt 0.65625 0.78125
vt 0.75 0.53125
vt 0.75 0.65625
vt 0.65625 0.65625
vt 0.65625 0.53125
vt 0.5625 0.1875
vt 0.5625 0.25
vt 0.46875 0.25
vt 0.46875 0.1875
vt 0.84375 0.46875
vt 0.75 0.46875
vt 0.75 0.40625
vt 0.84375 0.40625
vn 0.9961946980917455 0.056022631551222134 0.06676517241775075
vn -0.9961946980917455 -0.056022631551222134 -0.06676517241775075
vn 0.018863955312791628 0.6092908405030506 -0.7927224122409074
vn -0.018863955312791628 -0.6092908405030506 0.7927224122409074
vn -0.08508980364211083 0.7909653193618303 0.6059154964869152
vn 0.08508980364211083 -0.7909653193618303 -0.6059154964869152
usemtl m_f45626d7-16b7-226c-a113-ee2f65160e17
f 78/233/59 77/234/59 79/235/59 80/236/59
f 83/237/60 81/238/60 82/239/60 84/240/60
f 81/241/61 77/242/61 78/243/61 82/244/61
f 80/245/62 79/246/62 83/247/62 84/248/62
f 79/249/63 77/250/63 81/251/63 83/252/63
f 82/253/64 78/254/64 80/255/64 84/256/64
o cube
v -0.359375 0.7705313983141673 0.08005312442199354
v -0.359375 0.6850263624827502 -0.15487003077448358
v -0.359375 0.5649736375172498 0.15487003077448358
v -0.359375 0.4794686016858327 -0.08005312442199354
v -0.140625 0.7705313983141673 0.08005312442199354
v -0.140625 0.6850263624827502 -0.15487003077448358
v -0.140625 0.5649736375172498 0.15487003077448358
v -0.140625 0.4794686016858327 -0.08005312442199354
vt 0.65625 0.53125
vt 0.65625 0.65625
vt 0.53125 0.65625
vt 0.53125 0.53125
vt 0.125 0.4375
vt 0 0.4375
vt 0 0.3125
vt 0.125 0.3125
vt 0.5625 1
vt 0.5625 0.875
vt 0.6875 0.875
vt 0.6875 1
vt 0.25 0.40625
vt 0.125 0.40625
vt 0.125 0.28125
vt 0.25 0.28125
vt 0.375 0.40625
vt 0.25 0.40625
vt 0.25 0.28125
vt 0.375 0.28125
vt 0.5 0.28125
vt 0.5 0.40625
vt 0.375 0.40625
vt 0.375 0.28125
vn -1 0 0
vn 1 0 0
vn 0 0.9396926207859084 -0.34202014332566866
vn 0 -0.9396926207859084 0.34202014332566866
vn 0 0.34202014332566866 0.9396926207859084
vn 0 -0.34202014332566866 -0.9396926207859084
usemtl m_f45626d7-16b7-226c-a113-ee2f65160e17
f 87/257/65 85/258/65 86/259/65 88/260/65
f 90/261/66 89/262/66 91/263/66 92/264/66
f 86/265/67 85/266/67 89/267/67 90/268/67
f 91/269/68 87/270/68 88/271/68 92/272/68
f 89/273/69 85/274/69 87/275/69 91/276/69
f 88/277/70 86/278/70 90/279/70 92/280/70
o cube
v -0.3136092206830341 0.5522474499550235 0.1199051178115225
v -0.3407417484434919 0.49961868607479454 -0.02469122256321555
v -0.3136092206830341 0.4347858723567849 0.16265763572723105
v -0.3407417484434919 0.38215710847655604 0.018061295352493012
v -0.19050825155650808 0.5448235531282879 0.09950812891570564
v -0.21764077931696593 0.492194789248059 -0.04508821145903239
v -0.19050825155650808 0.42736197553004934 0.1422606468314142
v -0.21764077931696593 0.37473321164982043 -0.002335693543323837
vt 0.65625 0.1875
vt 0.65625 0.25
vt 0.5625 0.25
vt 0.5625 0.1875
vt 0.84375 0.40625
vt 0.75 0.40625
vt 0.75 0.34375
vt 0.84375 0.34375
vt 0.65625 0.25
vt 0.65625 0.15625
vt 0.71875 0.15625
vt 0.71875 0.25
vt 0.8125 0.34375
vt 0.75 0.34375
vt 0.75 0.25
vt 0.8125 0.25
vt 0.9375 0.65625
vt 0.875 0.65625
vt 0.875 0.59375
vt 0.9375 0.59375
vt 0.9375 0.53125
vt 0.9375 0.59375
vt 0.875 0.59375
vt 0.875 0.53125
vn -0.9848077530122081 0.05939117461388465 0.16317591116653482
vn 0.9848077530122081 -0.05939117461388465 -0.16317591116653482
vn -6.93889390390723e-18 0.9396926207859086 -0.34202014332566855
vn 6.93889390390723e-18 -0.9396926207859086 0.34202014332566855
vn 0.17364817766693033 0.336824088833465 0.9254165783983236
vn -0.17364817766693033 -0.336824088833465 -0.9254165783983236
usemtl m_f45626d7-16b7-226c-a113-ee2f65160e17
f 95/281/71 93/282/71 94/283/71 96/284/71
f 98/285/72 97/286/72 99/287/72 100/288/72
f 94/289/73 93/290/73 97/291/73 98/292/73
f 99/293/74 95/294/74 96/295/74 100/296/74
f 97/297/75 93/298/75 95/299/75 99/300/75
f 96/301/76 94/302/76 98/303/76 100/304/76
o cube
v -0.34404220939194236 0.48690743765808153 0.03922816584670778
v -0.3626556039386541 0.31388377404768114 -0.09331584900980489
v -0.3416842149778434 0.4107460825952002 0.1383184673768212
v -0.36029760952455514 0.23772241898479982 0.005774452520308539
v -0.18838678781510712 0.4781539014782031 0.028796107656434228
v -0.20700018236181886 0.3051302378678027 -0.10374790720007845
v -0.18602879340100817 0.4019925464153218 0.12788640918654764
v -0.2046421879477199 0.22896888280492136 -0.00465760566996503
vt 0.34375 0.21875
vt 0.34375 0.28125
vt 0.21875 0.28125
vt 0.21875 0.21875
vt 0.46875 0.28125
vt 0.34375 0.28125
vt 0.34375 0.21875
vt 0.46875 0.21875
vt 0.65625 0.4375
vt 0.65625 0.3125
vt 0.75 0.3125
vt 0.75 0.4375
vt 0.09375 0.3125
vt 0 0.3125
vt 0 0.1875
vt 0.09375 0.1875
vt 0.8125 0.25
vt 0.71875 0.25
vt 0.71875 0.1875
vt 0.8125 0.1875
vt 0.1875 0.15625
vt 0.1875 0.21875
vt 0.09375 0.21875
vt 0.09375 0.15625
vn -0.9961946980917455 0.056022631551222134 0.06676517241775075
vn 0.9961946980917455 -0.056022631551222134 -0.06676517241775075
vn -0.018863955312791628 0.6092908405030506 -0.7927224122409074
vn 0.018863955312791628 -0.6092908405030506 0.7927224122409074
vn 0.08508980364211083 0.7909653193618303 0.6059154964869152
vn -0.08508980364211083 -0.7909653193618303 -0.6059154964869152
usemtl m_f45626d7-16b7-226c-a113-ee2f65160e17
f 103/305/77 101/306/77 102/307/77 104/308/77
f 106/309/78 105/310/78 107/311/78 108/312/78
f 102/313/79 101/314/79 105/315/79 106/316/79
f 107/317/80 103/318/80 104/319/80 108/320/80
f 105/321/81 101/322/81 103/323/81 107/324/81
f 104/325/82 102/326/82 106/327/82 108/328/82
o cube
v 0.0625 0.8125 0.0625
v 0.0625 0.8125 -0.0625
v 0.0625 0.6875 0.0625
v 0.0625 0.6875 -0.0625
v -0.0625 0.8125 0.0625
v -0.0625 0.8125 -0.0625
v -0.0625 0.6875 0.0625
v -0.0625 0.6875 -0.0625
vt 0.25 0.21875
vt 0.1875 0.21875
vt 0.1875 0.15625
vt 0.25 0.15625
vt 0.3125 0.15625
vt 0.3125 0.21875
vt 0.25 0.21875
vt 0.25 0.15625
vt 0.3125 0.15625
vt 0.375 0.15625
vt 0.375 0.21875
vt 0.3125 0.21875
vt 0.4375 0.15625
vt 0.4375 0.21875
vt 0.375 0.21875
vt 0.375 0.15625
vt 0.0625 0.125
vt 0.0625 0.1875
vt 0 0.1875
vt 0 0.125
vt 0.875 0.65625
vt 0.8125 0.65625
vt 0.8125 0.59375
vt 0.875 0.59375
vn 1 0 0
vn -1 0 0
vn 0 1 0
vn 0 -1 0
vn 0 0 1
vn 0 0 -1
usemtl m_f45626d7-16b7-226c-a113-ee2f65160e17
f 110/329/83 109/330/83 111/331/83 112/332/83
f 115/333/84 113/334/84 114/335/84 116/336/84
f 113/337/85 109/338/85 110/339/85 114/340/85
f 112/341/86 111/342/86 115/343/86 116/344/86
f 111/345/87 109/346/87 113/347/87 115/348/87
f 114/349/88 110/350/88 112/351/88 116/352/88